<svg version="1.0" xmlns="http://www.w3.org/2000/svg" viewBox="0 0 1540.000000 1504.000000">
<g transform="translate(0.000000,1504.000000) scale(0.100000,-0.100000)">
<path d="M7585 13460 c-161 -27 -314 -126 -404 -259 -50 -75 -68 -115 -91
-208 -44 -175 -7 -368 101 -515 100 -138 244 -220 429 -246 41 -6 113 -16 160
-22 145 -20 331 -54 440 -81 19 -4 53 -12 75 -18 22 -5 56 -14 75 -20 19 -5
46 -13 60 -16 108 -30 198 -57 212 -65 10 -6 25 -10 33 -10 8 0 23 -4 33 -9 9
-5 44 -19 77 -31 112 -42 260 -102 335 -137 211 -100 360 -177 458 -240 29
-18 55 -33 57 -33 6 0 253 -163 296 -195 14 -11 49 -35 75 -54 49 -35 185
-140 194 -151 3 -3 21 -18 40 -34 226 -185 553 -523 717 -742 136 -181 313
-435 313 -449 0 -3 15 -29 33 -58 67 -105 204 -369 266 -512 50 -116 69 -161
82 -192 5 -13 13 -33 19 -45 5 -13 26 -72 46 -133 20 -60 40 -119 44 -130 5
-11 11 -31 15 -45 7 -27 21 -78 35 -125 40 -136 94 -389 120 -560 6 -38 15
-95 20 -126 6 -30 10 -72 10 -92 0 -20 6 -60 14 -89 35 -132 68 -189 161 -284
81 -82 174 -139 271 -166 58 -17 271 -22 319 -8 192 57 327 165 407 327 53
106 61 145 62 283 0 110 -4 157 -24 280 -5 30 -14 89 -20 130 -6 41 -16 93
-20 115 -5 22 -17 81 -25 130 -9 50 -20 101 -25 115 -4 14 -13 50 -20 80 -6
30 -16 69 -20 85 -5 17 -14 50 -20 75 -7 25 -16 56 -20 70 -4 14 -16 52 -25
85 -26 93 -75 238 -85 257 -6 10 -10 25 -10 33 0 8 -4 23 -9 33 -5 9 -26 62
-47 117 -35 95 -48 127 -94 230 -11 25 -20 47 -20 50 0 7 -205 421 -228 460
-9 17 -32 57 -51 90 -19 33 -42 74 -51 90 -27 47 -129 209 -138 221 -5 5 -15
21 -22 35 -7 13 -16 26 -19 29 -4 3 -29 39 -56 80 -28 41 -55 82 -62 90 -6 8
-34 44 -61 80 -98 131 -125 166 -166 215 -57 69 -85 103 -127 149 -20 23 -49
57 -65 76 -15 19 -123 130 -239 245 -182 182 -417 391 -550 489 -22 17 -42 33
-45 36 -19 22 -431 310 -444 310 -3 0 -36 20 -73 44 -37 24 -85 53 -105 65
-21 11 -55 31 -75 43 -196 113 -498 259 -708 343 -66 26 -131 52 -145 57 -14
6 -34 14 -45 19 -52 21 -224 79 -234 79 -6 0 -19 4 -29 9 -9 5 -51 19 -92 31
-41 12 -86 26 -100 31 -24 7 -280 70 -365 89 -108 24 -134 29 -185 39 -267 51
-548 78 -645 61z"/>
<path d="M2805 12295 c-117 -30 -221 -78 -339 -158 -52 -34 -832 -795 -1119
-1089 -186 -192 -315 -429 -375 -693 -64 -276 -55 -834 19 -1172 48 -223 50
-232 100 -408 17 -60 34 -122 36 -138 3 -15 9 -30 14 -33 5 -3 9 -16 9 -29 0
-13 5 -27 10 -30 6 -3 10 -16 10 -29 0 -12 4 -26 8 -31 4 -6 14 -28 21 -50 16
-50 60 -173 71 -200 5 -11 32 -81 60 -155 52 -135 66 -170 100 -245 45 -100
60 -135 60 -139 0 -5 110 -236 191 -401 71 -144 196 -378 258 -483 17 -29 31
-55 31 -58 0 -3 13 -25 30 -49 16 -24 30 -47 30 -50 0 -4 20 -38 45 -76 25
-38 45 -74 45 -79 0 -6 5 -10 10 -10 6 0 10 -4 10 -10 0 -10 247 -390 338
-522 83 -118 177 -250 187 -261 6 -7 22 -28 35 -47 13 -19 59 -80 102 -135 43
-55 95 -122 116 -149 53 -69 210 -265 246 -307 17 -19 42 -49 55 -65 29 -34
134 -157 141 -164 3 -3 36 -41 75 -85 272 -311 687 -729 1019 -1025 71 -63
134 -119 140 -125 6 -5 38 -32 71 -60 33 -27 62 -52 65 -56 4 -4 221 -179 440
-353 169 -134 909 -646 935 -646 2 0 43 -25 90 -55 46 -30 88 -55 91 -55 3 0
18 -8 32 -19 15 -10 43 -28 62 -39 19 -11 64 -36 100 -57 120 -69 135 -77 220
-123 47 -25 112 -61 145 -79 170 -93 670 -334 800 -385 28 -11 66 -26 85 -35
19 -8 44 -18 55 -23 11 -4 31 -12 45 -18 40 -18 131 -53 180 -68 25 -8 54 -19
65 -23 11 -5 36 -14 55 -21 19 -7 44 -16 55 -20 24 -10 173 -54 235 -70 25 -7
54 -16 65 -20 11 -5 34 -11 50 -15 17 -3 47 -10 68 -15 126 -33 151 -38 292
-64 247 -46 361 -57 655 -63 177 -3 288 -1 335 7 246 40 351 72 540 166 168
83 279 167 440 334 71 74 312 317 535 540 426 425 482 491 557 650 78 167 102
353 68 519 -18 84 -69 223 -96 263 -11 14 -19 29 -19 33 0 4 -26 43 -57 86
-65 88 -1646 1674 -1700 1705 -18 10 -33 22 -33 26 0 4 -4 8 -10 8 -5 0 -35
17 -67 38 -148 95 -368 146 -530 123 -96 -14 -124 -21 -223 -58 -68 -26 -178
-85 -219 -119 -105 -85 -215 -191 -626 -604 -258 -260 -480 -476 -493 -481
-13 -5 -36 -9 -52 -9 -31 0 -496 231 -640 318 -121 73 -502 331 -520 352 -3 3
-41 32 -85 65 -71 52 -332 260 -345 274 -3 3 -36 33 -75 66 -288 247 -787 748
-981 985 -16 19 -31 37 -34 40 -3 3 -32 37 -65 75 -33 39 -62 72 -65 75 -3 3
-29 34 -58 70 -29 36 -61 74 -70 85 -28 35 -91 117 -164 215 -39 52 -88 118
-108 145 -46 61 -194 289 -240 370 -19 33 -43 74 -52 90 -37 63 -175 343 -206
417 -34 82 -39 117 -21 149 5 11 236 246 513 522 277 276 526 534 555 572 68
93 155 273 175 362 30 136 19 332 -25 458 -25 70 -105 218 -153 281 -55 74
-1541 1568 -1641 1650 -33 27 -62 52 -65 55 -12 13 -161 99 -173 99 -7 0 -17
4 -23 9 -11 11 -92 39 -164 57 -69 17 -297 16 -365 -1z"/>
<path d="M7537 11264 c-181 -49 -327 -169 -405 -334 -61 -129 -76 -264 -46
-401 32 -140 105 -259 217 -349 96 -78 167 -106 377 -149 30 -7 73 -16 95 -22
51 -13 325 -100 345 -110 8 -4 35 -16 60 -27 419 -184 778 -458 1051 -802 80
-101 149 -197 149 -206 0 -3 18 -31 39 -62 57 -84 163 -295 205 -408 21 -55
42 -107 47 -116 5 -10 9 -27 9 -37 0 -11 4 -22 9 -25 5 -3 11 -18 14 -33 3
-16 10 -46 17 -68 6 -22 22 -89 34 -150 34 -158 36 -164 59 -225 45 -119 134
-226 245 -298 55 -35 87 -50 183 -80 46 -15 252 -15 298 -1 237 76 366 198
447 421 35 95 28 286 -16 458 -5 19 -14 58 -20 85 -7 28 -15 61 -20 75 -4 14
-13 43 -19 65 -30 109 -54 189 -71 230 -4 11 -13 36 -20 55 -14 41 -21 60 -47
120 -11 25 -33 77 -49 115 -28 68 -101 215 -152 305 -14 25 -30 54 -36 65 -6
11 -31 52 -54 90 -24 39 -48 79 -55 90 -7 11 -14 22 -17 25 -3 3 -36 49 -73
102 -74 109 -65 96 -182 238 -238 289 -500 529 -810 742 -117 81 -362 226
-455 270 -287 135 -321 149 -430 184 -25 8 -53 19 -62 24 -10 6 -27 10 -37 10
-11 0 -23 5 -26 10 -3 6 -15 10 -26 10 -10 0 -27 4 -37 9 -18 10 -167 50 -262
71 -30 6 -71 16 -90 20 -101 24 -150 30 -238 29 -53 -1 -119 -7 -145 -15z"/>
</g>
</svg>
