<svg version="1.0" xmlns="http://www.w3.org/2000/svg"
 width="472.000000pt" height="504.000000pt" viewBox="0 0 472.000000 504.000000">
<g transform="translate(0.000000,504.000000) scale(0.100000,-0.100000)"
fill="#000000" stroke="none">
<path d="M2901 4527 c-56 -431 -127 -583 -316 -672 -40 -19 -80 -35 -89 -35
-8 0 -25 -4 -38 -9 -35 -14 -106 -27 -340 -62 -87 -13 -103 -29 -30 -29 27 0
73 -4 103 -9 30 -5 86 -15 124 -21 192 -33 311 -80 388 -155 106 -104 148
-229 198 -597 13 -96 29 -117 29 -40 0 27 4 73 9 103 5 30 15 86 21 124 48
301 142 443 339 511 112 39 354 84 449 84 71 0 54 16 -31 29 -45 6 -113 16
-152 22 -418 63 -542 180 -605 574 -6 39 -16 94 -21 124 -5 30 -9 74 -9 97 0
78 -17 55 -29 -39z"/>
<path d="M1317 3964 c-4 -4 -7 -25 -7 -47 0 -91 -49 -310 -86 -387 -44 -92
-122 -154 -237 -189 -90 -27 -275 -61 -336 -61 -17 0 -31 -4 -31 -10 0 -5 13
-10 28 -10 16 0 53 -4 83 -9 30 -5 86 -15 124 -21 195 -33 302 -94 363 -211
42 -79 92 -297 92 -397 0 -22 4 -43 9 -46 8 -6 16 30 42 197 11 74 41 183 61
227 57 122 180 198 373 230 39 6 94 16 124 21 30 5 67 9 83 9 15 0 28 5 28 10
0 6 -14 10 -31 10 -50 0 -218 28 -304 52 -208 55 -295 170 -335 443 -19 127
-35 197 -43 189z"/>
<path d="M2301 3283 c-39 -311 -55 -407 -88 -533 -8 -30 -18 -69 -22 -85 -17
-66 -72 -175 -125 -247 -118 -161 -346 -258 -726 -308 -47 -6 -109 -16 -139
-21 -30 -5 -73 -9 -95 -9 -88 0 -111 -25 -33 -34 23 -3 85 -10 137 -16 110
-13 194 -26 300 -47 134 -27 144 -30 225 -57 224 -77 350 -195 436 -411 11
-30 14 -39 42 -145 32 -124 54 -258 88 -532 13 -103 29 -131 29 -51 0 25 4 74
9 107 5 34 15 102 21 151 6 50 15 110 20 135 17 92 32 166 40 190 4 14 13 45
20 70 23 82 63 169 112 242 79 118 222 212 396 259 17 5 49 14 70 19 92 26
306 60 490 79 92 9 127 26 71 35 -19 2 -79 10 -134 16 -201 22 -401 60 -523
100 -140 45 -222 91 -301 168 -78 77 -125 158 -170 292 -31 95 -37 118 -51
190 -6 36 -15 85 -20 110 -5 25 -14 83 -20 130 -6 47 -16 112 -21 146 -5 33
-9 82 -9 107 0 80 -16 52 -29 -50z"/>
</g>
</svg>
