<?xml version="1.0" encoding="utf-8"?>
<!-- Svg Vector Icons : http://www.onlinewebfonts.com/icon -->
<!DOCTYPE svg PUBLIC "-//W3C//DTD SVG 1.1//EN" "http://www.w3.org/Graphics/SVG/1.1/DTD/svg11.dtd">
<svg version="1.1" xmlns="http://www.w3.org/2000/svg" xmlns:xlink="http://www.w3.org/1999/xlink" x="0px" y="0px" viewBox="0 0 1000 1000" enable-background="new 0 0 1000 1000" xml:space="preserve">
<metadata> Svg Vector Icons : http://www.onlinewebfonts.com/icon </metadata>
<g><g transform="translate(0.000000,511.000000) scale(0.100000,-0.100000)"><path d="M5982.7,4660.9l-241.2-241.2l236.8-236.8c129.4-129.4,234.6-245.6,234.6-256.5c0-13.2-1278.2-1300.1-2841.4-2861.1c-1561-1561-2883-2898.4-2935.7-2970.8C52.2-2442.5-7-3113.4,280.2-3698.8c456-934,1591.7-1262.9,2501.6-723.5c100.9,61.4,800.2,745.4,3030,2975.1L8712.3,1449l247.7-247.7l245.6-245.6l247.7,247.7l245.6,245.6L7971.3,3176.7C7021.9,4126,6241.4,4902.1,6234.9,4902.1S6114.3,4794.7,5982.7,4660.9z M7484.5,2676.8l734.5-734.5L5346.9-927.6c-2823.9-2821.6-2874.3-2869.9-3043.1-2951c-151.3-74.6-190.7-85.5-385.9-94.3c-179.8-8.8-243.4-2.2-370.5,37.3c-519.6,157.8-835.3,684-725.7,1212.4c13.2,63.6,54.8,179.8,89.9,258.7c61.4,133.7,247.7,322.3,2931.3,3010.2C5417.1,2122.1,6715,3411.2,6728.2,3411.2S7081.1,3080.2,7484.5,2676.8z"/><path d="M2374-1427.5C1106.7-2696.9,1159.4-2633.3,1159.4-2946.8c0-135.9,11-186.4,61.4-289.4c118.4-239,320.1-370.5,598.5-385.9c331.1-17.5,217-114,2047.7,1716.7L5478.5-294h-986.6h-986.6L2374-1427.5z"/><path d="M8896.5,249.8C8536.9-116.4,8504-175.6,8519.4-465c13.1-274.1,160-488.9,407.8-602.9c142.5-63.6,412.2-65.8,554.7,0c359.6,162.2,519.6,589.7,350.8,938.3c-48.2,100.8-129.3,197.3-346.4,412.2l-282.8,280.6L8896.5,249.8z"/></g></g>
</svg>